<svg xmlns="http://www.w3.org/2000/svg" viewBox="0 0 10.64 10.84"><defs><style>.cls-1{fill:#b81c22;}</style></defs><g id="圖層_2" data-name="圖層 2"><g id="圖層_1-2" data-name="圖層 1"><path class="cls-1" d="M10.64,5.5a5.72,5.72,0,0,1-.15,1.67,5.67,5.67,0,0,1-.71,1.56A5.48,5.48,0,0,1,8.46,9.8a5.5,5.5,0,0,1-1.42,1,5.79,5.79,0,0,1-1.71,0,5.15,5.15,0,0,1-1.63-.24,4.87,4.87,0,0,1-1.41-.82c-.46-.33-1.11-.48-1.44-.94a5.63,5.63,0,0,1-.8-1.54C-.12,6.69.18,6.08.18,5.5A5.15,5.15,0,0,1,.31,3.87,5.38,5.38,0,0,1,1,2.35,5.27,5.27,0,0,1,2.24,1.24,4.92,4.92,0,0,1,3.73.56,5.35,5.35,0,0,1,5.33,0,5.39,5.39,0,0,1,7,.45a5.35,5.35,0,0,1,1.49.75A5.35,5.35,0,0,1,9.72,2.31a5.2,5.2,0,0,1,.65,1.55A5.22,5.22,0,0,1,10.64,5.5Z"/></g></g></svg>