<svg xmlns="http://www.w3.org/2000/svg" viewBox="0 0 111.2 106"><g id="圖層_2" data-name="圖層 2"><g id="Capa_1" data-name="Capa 1"><path d="M84.28,80a13,13,0,1,0,13,13A13.14,13.14,0,0,0,84.28,80Z"/><path d="M107.12,18.1c-.25,0-.62-.12-1-.12H27.47L26.22,9.61A11.18,11.18,0,0,0,15.11,0H5A5,5,0,0,0,5,10H15.11a1.34,1.34,0,0,1,1.25,1.12L24.1,63.8A13.68,13.68,0,0,0,37.58,75.41H89.52a13.87,13.87,0,0,0,13.48-11l8.12-40.57A4.94,4.94,0,0,0,107.12,18.1Z"/><path d="M52.44,92.39A12.9,12.9,0,0,0,39.58,80,13.07,13.07,0,0,0,27.09,93.51a12.81,12.81,0,0,0,12.74,12.37h.25A13,13,0,0,0,52.44,92.39Z"/></g></g></svg>