<svg xmlns="http://www.w3.org/2000/svg" viewBox="0 0 18.93 19.4"><defs><style>.cls-1{fill:#182f64;}</style></defs><g id="圖層_2" data-name="圖層 2"><g id="圖層_1-2" data-name="圖層 1"><path class="cls-1" d="M18.85,9.66a9.17,9.17,0,0,1,0,1.65A8.75,8.75,0,0,1,18.6,13c-.19.52-.71.9-1,1.37s-.29,1.17-.64,1.58-1.1.47-1.52.82a8.69,8.69,0,0,1-1.31.94,8,8,0,0,1-1.51.53c-.51.19-.88.94-1.42,1a10.63,10.63,0,0,1-1.69.16c-.56,0-1-.74-1.57-.83a10.29,10.29,0,0,1-1.6-.2,9.63,9.63,0,0,1-1.53-.57,8.91,8.91,0,0,1-1.24-1.06,9.49,9.49,0,0,1-1-1.22c-.35-.42-1.1-.56-1.37-1a9.58,9.58,0,0,1-.4-1.64,8.27,8.27,0,0,1-.43-1.57A8.8,8.8,0,0,1,0,9.66,10,10,0,0,1,.36,8,10.13,10.13,0,0,1,1,6.55,9,9,0,0,1,1.41,5,9.45,9.45,0,0,1,2.3,3.6c.35-.42.92-.6,1.34-1s.54-1.15,1-1.42A10.4,10.4,0,0,1,6.19.48c.5-.18,1.18.13,1.72,0S9,0,9.53,0s1,.62,1.58.71S12.35.31,12.86.5a9.41,9.41,0,0,1,1.41,1,8.42,8.42,0,0,1,1.25,1.07,9.81,9.81,0,0,1,1.25,1.07c.35.42.31,1.08.59,1.55s1.09.69,1.28,1.2-.1,1.17,0,1.72A8.45,8.45,0,0,1,18.85,9.66Z"/></g></g></svg>